<?xml version="1.0" encoding="UTF-8"?>
<svg width="158px" height="21px" viewBox="0 0 158 21" version="1.1" xmlns="http://www.w3.org/2000/svg" xmlns:xlink="http://www.w3.org/1999/xlink">
    <!-- Generator: Sketch 42 (36781) - http://www.bohemiancoding.com/sketch -->
    <title>logo</title>
    <desc>Created with Sketch.</desc>
    <defs></defs>
    <g id="Symbols" stroke="none" stroke-width="1" fill="none" fill-rule="evenodd">
        <g id="Navbar" transform="translate(0.000000, -10.000000)" fill-rule="nonzero" fill="#FFFFFF">
            <g id="logo">
                <g transform="translate(0.000000, 10.000000)">
                    <path d="M7.89553015,18.6595284 L1.32104201,0.805893252 C1.16743247,0.43394252 0.952379123,0.21697126 0.55299433,0.21697126 C0.21505335,0.21697126 -3.55271368e-15,0.371950732 -3.55271368e-15,0.619917886 C-3.55271368e-15,0.712905569 0.0307219072,0.836889146 0.0921657216,1.02286451 L7.12748247,20.0853395 C7.2503701,20.4262943 7.46542345,20.6742615 7.83408634,20.6742615 C8.20274922,20.6742615 8.41780257,20.4262943 8.5406902,20.0853395 L15.8217822,1.02286451 C15.883226,0.86788504 15.9139479,0.743901463 15.9139479,0.65091378 C15.9139479,0.402946626 15.7603384,0.21697126 15.3916755,0.21697126 C14.9922907,0.21697126 14.8386812,0.43394252 14.6850716,0.805893252 L7.89553015,18.6595284 Z M23.5005522,0.929876829 C23.5005522,0.743901463 23.5005522,0.557926097 23.4083865,0.43394252 C23.3162208,0.278963049 23.1011674,0.21697126 22.8861141,0.21697126 C22.6710607,0.21697126 22.4560074,0.278963049 22.3638417,0.43394252 C22.271676,0.557926097 22.271676,0.743901463 22.271676,0.929876829 L22.271676,19.9613559 C22.271676,20.1473313 22.271676,20.3333067 22.3638417,20.4572902 C22.4560074,20.6122697 22.6710607,20.6742615 22.8861141,20.6742615 C23.1011674,20.6742615 23.3162208,20.6122697 23.4083865,20.4572902 C23.5005522,20.3333067 23.5005522,20.1473313 23.5005522,19.9613559 L23.5005522,0.929876829 Z M32.0395356,4.61838825 C32.0395356,2.54166333 33.8214062,1.11585219 36.3098807,1.11585219 C38.7369114,1.11585219 39.6892906,2.44867565 40.3344506,2.44867565 C40.6723916,2.44867565 40.856723,2.10772081 40.856723,1.89074955 C40.856723,1.23983577 38.859799,0 36.2484369,0 C32.9304709,0 30.8106593,1.98373723 30.8106593,4.64938414 C30.8106593,8.39988735 34.9888387,9.73271081 37.2622599,11.1585219 C38.7676333,12.0883988 40.0886754,13.4522181 40.0886754,15.528943 C40.0886754,18.1635941 37.9995856,19.7443847 35.3267797,19.7443847 C32.4081985,19.7443847 31.4865413,17.8226392 30.7799374,17.8226392 C30.5034403,17.8226392 30.1962212,18.1016023 30.1962212,18.4115612 C30.1962212,18.752516 30.6877717,19.2794463 31.3636537,19.7133888 C32.5003642,20.4572902 33.913572,20.8602369 35.3575016,20.8602369 C38.4604142,20.8602369 41.3175516,19.0004832 41.3175516,15.4979471 C41.3175516,12.8632961 39.7200125,11.1895178 37.7230885,10.0116739 C35.572555,8.74084219 32.0395356,7.53200231 32.0395356,4.61838825 L32.0395356,4.61838825 Z M49.3957065,0.929876829 C49.3957065,0.743901463 49.3957065,0.557926097 49.3035407,0.43394252 C49.211375,0.278963049 48.9963217,0.21697126 48.7812683,0.21697126 C48.566215,0.21697126 48.3511616,0.278963049 48.2589959,0.43394252 C48.1668302,0.557926097 48.1668302,0.743901463 48.1668302,0.929876829 L48.1668302,19.9613559 C48.1668302,20.1473313 48.1668302,20.3333067 48.2589959,20.4572902 C48.3511616,20.6122697 48.566215,20.6742615 48.7812683,20.6742615 C48.9963217,20.6742615 49.211375,20.6122697 49.3035407,20.4572902 C49.3957065,20.3333067 49.3957065,20.1473313 49.3957065,19.9613559 L49.3957065,0.929876829 Z" id="VISI--"></path>
                    <path d="M82.5327019,2.2007085 L95.8352878,19.93036 C96.1117849,20.3023108 96.3575602,20.4572902 96.7262231,20.4572902 C97.1563298,20.4572902 97.3099393,20.240319 97.3099393,19.8373723 L97.3099393,0.712905569 C97.3099393,0.526930203 97.3099393,0.340954837 97.2177736,0.21697126 C97.1256079,0.0619917886 96.9412764,0 96.7262231,0 C96.5111697,0 96.3268383,0.0619917886 96.2346725,0.21697126 C96.1425068,0.340954837 96.1425068,0.526930203 96.1425068,0.712905569 L96.1425068,18.2565817 L82.839921,0.526930203 C82.5634238,0.154979471 82.3176486,0 81.9489857,0 C81.518879,0 81.3652695,0.21697126 81.3652695,0.619917886 L81.3652695,19.7443847 C81.3652695,19.93036 81.3652695,20.1163354 81.4574352,20.240319 C81.5496009,20.3952984 81.7339323,20.4572902 81.9489857,20.4572902 C82.164039,20.4572902 82.3483705,20.3952984 82.4405362,20.240319 C82.5327019,20.1163354 82.5327019,19.93036 82.5327019,19.7443847 L82.5327019,2.2007085 Z M118.168408,19.8683682 C118.322017,20.3023108 118.53707,20.4572902 118.905733,20.4572902 C119.33584,20.4572902 119.48945,20.2713149 119.48945,20.0543436 C119.48945,19.93036 119.428006,19.7443847 119.366562,19.5894052 L112.361967,0.588921992 C112.239079,0.247967154 112.024026,0 111.655363,0 C111.2867,0 111.071647,0.247967154 110.948759,0.588921992 L103.698389,19.5894052 C103.606224,19.8063765 103.575502,19.9613559 103.575502,20.0543436 C103.575502,20.3023108 103.729111,20.4572902 104.097774,20.4572902 C104.497159,20.4572902 104.650768,20.240319 104.804378,19.8683682 L107.722959,12.1813865 L115.341992,12.1813865 L118.168408,19.8683682 Z M111.593919,2.01473313 L114.942607,11.1275261 L108.122344,11.1275261 L111.593919,2.01473313 Z M126.983888,11.1275261 C126.983888,11.1275261 127.413995,11.1895178 128.274208,11.1895178 C129.625972,11.1895178 130.609073,11.0345384 130.609073,11.0345384 C130.609073,11.0345384 131.438565,12.3363659 132.360222,13.6381935 L136.753455,19.8373723 C136.99923,20.2093231 137.214283,20.4572902 137.736556,20.4572902 C138.412438,20.4572902 138.44316,20.0543436 138.13594,19.6204011 L131.837949,10.7865712 C134.940862,9.91868617 136.323348,7.93494894 136.323348,5.33129382 C136.323348,3.16158122 135.370969,1.76676597 133.77343,0.929876829 C132.421666,0.21697126 130.824127,0 129.195865,0 C128.335652,0 127.413995,0.0619917886 126.799557,0.154979471 C125.755012,0.309958943 125.755012,0.619917886 125.755012,1.27083167 L125.755012,19.7443847 C125.755012,19.93036 125.755012,20.1163354 125.847178,20.240319 C125.939343,20.3952984 126.154397,20.4572902 126.36945,20.4572902 C126.584503,20.4572902 126.799557,20.3952984 126.891722,20.240319 C126.983888,20.1163354 126.983888,19.93036 126.983888,19.7443847 L126.983888,11.1275261 Z M126.983888,1.20883988 C126.983888,1.20883988 127.936267,1.05386041 129.1037,1.05386041 C132.083725,1.05386041 134.971584,2.07672492 134.971584,5.48627329 C134.971584,8.30689967 132.943938,10.1356574 128.366374,10.1356574 C127.506161,10.1356574 126.983888,10.0736656 126.983888,10.0736656 L126.983888,1.20883988 Z M149.931446,11.0965302 L143.725621,0.619917886 C143.479846,0.185975366 143.264792,0 142.803964,0 C142.435301,0 142.220247,0.123983577 142.220247,0.371950732 C142.220247,0.526930203 142.312413,0.681909675 142.466023,0.960872723 L149.255564,12.30537 L149.255564,19.7443847 C149.255564,19.93036 149.255564,20.1163354 149.34773,20.240319 C149.439896,20.3952984 149.654949,20.4572902 149.870002,20.4572902 C150.085056,20.4572902 150.300109,20.3952984 150.392275,20.240319 C150.48444,20.1163354 150.48444,19.93036 150.48444,19.7443847 L150.48444,12.30537 L157.458313,0.960872723 C157.611923,0.712905569 157.704089,0.526930203 157.704089,0.371950732 C157.704089,0.123983577 157.519757,0 157.212538,0 C156.751709,0 156.505934,0.278963049 156.290881,0.619917886 L149.931446,11.0965302 Z" id="--NARY"></path>
                    <path d="M57.9703381,8.39141424 C56.346766,9.20532996 55.0026019,10.2020607 53.9281437,11.1732654 C54.7268322,16.1340671 59.5592265,19.9488716 65.4039887,19.9488716 C67.4279962,19.9488716 69.3304908,19.4903754 70.9868057,18.686427 C69.0285269,17.9702395 67.6276079,16.0924961 67.6276079,13.8816987 C67.6276079,11.0551163 69.913803,8.76312187 72.7345592,8.76312187 C73.2055743,8.76312187 73.6600968,8.83240677 74.0935185,8.95250067 C73.773121,8.76409428 73.4430222,8.58079304 73.098371,8.40697293 C73.098371,8.40697293 65.9118701,4.53576809 57.9703381,8.39141424" id="Fill-1"></path>
                    <path d="M64.4634132,4.36470814 C64.7571309,4.33626485 65.0535162,4.3190044 65.3549954,4.3190044 L65.3637268,4.3190044 C65.6608401,4.3190044 65.9545573,4.33626485 66.2456073,4.36470814 C70.4886261,4.54922485 73.8873582,6.00129136 76.4743045,7.73244241 C75.2123617,3.29018381 70.6567069,0 65.2288738,0 C59.7156659,0 55.1047117,3.39520517 53.9281437,7.94321449 C56.5514712,6.12065591 60.049645,4.55676112 64.4634132,4.36470814" id="Fill-2"></path>
                </g>
            </g>
        </g>
    </g>
</svg>