<?xml version="1.0" standalone="no"?>
<!DOCTYPE svg PUBLIC "-//W3C//DTD SVG 20010904//EN"
 "http://www.w3.org/TR/2001/REC-SVG-20010904/DTD/svg10.dtd">
<svg version="1.0" xmlns="http://www.w3.org/2000/svg"
 width="900.000000pt" height="900.000000pt" viewBox="0 0 900.000000 900.000000"
 preserveAspectRatio="xMidYMid meet">
<metadata>
Created by potrace 1.11, written by Peter Selinger 2001-2013
</metadata>
<g transform="translate(0.000000,900.000000) scale(0.100000,-0.100000)"
fill="#000000" stroke="none">
<path d="M4375 7454 c-726 -43 -1344 -242 -1900 -609 -195 -129 -336 -245
-505 -415 -268 -267 -462 -545 -611 -875 -57 -125 -145 -382 -135 -393 2 -2
44 23 93 55 205 137 431 265 704 397 600 290 1236 471 1914 546 171 18 520 40
655 40 156 0 515 -23 709 -46 856 -99 1683 -387 2421 -842 87 -54 146 -85 148
-78 2 7 -15 62 -36 122 -148 412 -371 757 -701 1084 -155 153 -242 227 -408
346 -493 352 -1098 577 -1748 648 -140 15 -486 27 -600 20z"/>
<path d="M4205 5359 c-1082 -75 -2063 -473 -2911 -1181 l-131 -110 23 -111
c116 -549 383 -1021 815 -1442 592 -578 1385 -920 2286 -986 277 -20 671 -1
933 46 322 58 653 158 903 274 l80 36 -95 42 c-392 170 -697 507 -826 913 -58
184 -81 398 -62 580 75 718 633 1266 1365 1340 139 14 342 0 495 -36 38 -8
-76 57 -244 141 -529 265 -1237 446 -1936 495 -167 11 -520 11 -695 -1z"/>
</g>
</svg>
